<svg width="212" height="44" viewBox="0 0 212 44" fill="none" xmlns="http://www.w3.org/2000/svg">
<g clip-path="url(#clip0)">
<path d="M128.349 43.5658C128.132 43.5658 127.988 43.4211 127.988 43.204V17.4408C127.988 17.2237 128.132 17.079 128.349 17.079C128.566 17.079 128.711 17.2237 128.711 17.4408V43.204C128.711 43.3487 128.494 43.5658 128.349 43.5658Z" fill="#333333"/>
<path d="M53.8422 24.7501C54.7106 23.5198 56.3027 22.6514 57.4606 22.7961C58.1119 22.8685 58.4738 23.3751 58.4014 24.6054C58.3291 25.7632 57.6777 26.9211 56.8093 27.8619C55.9409 28.7304 53.5527 29.1646 52.2501 29.3093C52.3225 27.5001 52.9738 25.9804 53.8422 24.7501ZM116.369 31.2632C115.5 30.6843 114.704 30.9014 114.415 31.2632C112.75 33.6514 111.303 35.3159 110.29 36.0396C109.276 36.7632 108.046 37.4146 107.178 37.2698C106.02 37.1251 105.441 35.3159 105.441 31.9869C105.441 28.658 106.092 24.0264 107.178 18.9606C107.25 18.6711 107.105 18.3817 106.888 18.0922C106.092 17.2238 104.717 16.3554 101.822 16.3554C98.8554 16.283 97.1909 17.1514 96.7567 18.2369C94.0067 25.9804 91.6185 30.6119 89.9541 33.1448C89.5922 33.6514 88.8685 33.5067 88.7962 32.9277C88.5067 31.4804 88.2896 29.3817 88.4343 27.1382C88.5791 23.954 89.0856 21.204 89.5922 18.5988C89.737 17.7304 89.0856 16.8619 87.4212 16.5001C85.7567 16.1382 84.5988 15.9935 82.7896 16.283C80.9804 16.5725 79.8225 17.2961 79.4606 17.9475C76.783 22.5067 74.6843 26.4146 73.1646 29.6711C72.9475 30.1054 72.8027 30.3948 72.658 30.7567C72.3685 31.3356 72.0791 31.9146 71.6448 32.4211C70.3422 34.3027 68.3883 36.2567 66.2896 37.1975C63.4672 38.4277 60.7896 38.7896 58.2567 38.2106C55.7238 37.6317 53.1909 36.1119 52.5396 34.0132C55.9409 34.3751 59.9935 33.8685 62.3093 32.8554C64.6975 31.8422 66.3619 30.3225 67.3751 28.1514C67.9541 27.0659 68.3159 25.5461 68.1712 24.2435C68.0264 22.9409 67.6646 21.7106 67.0856 20.6251C66.5067 19.5396 65.4935 18.5988 63.9738 17.8027C62.4541 17.0067 60.7172 16.5725 58.6185 16.5001C53.6975 16.283 49.6448 17.658 46.3883 20.5527C43.2764 23.3751 41.612 26.8488 41.5396 30.9014C41.5396 30.9014 41.4672 30.9014 41.4672 30.9738C39.0067 34.8817 36.112 37.3422 34.0856 37.1975C32.7106 37.1251 32.0593 35.8225 32.2764 33.7238C32.4935 31.408 33.1448 27.9343 34.3027 23.3751C35.3159 19.3948 36.1843 16.2106 37.0527 13.8948C37.5593 12.5198 36.7633 11.0725 35.3883 10.7106H35.3159C33.8685 10.3488 32.4935 10.204 31.1909 10.3488C30.6843 10.4211 30.2501 10.4935 29.8883 10.6382C29.237 10.8554 28.8027 11.3619 28.5133 12.0132C27.6448 14.1843 26.4146 18.0922 25.1843 22.5067C23.158 22.5067 21.6383 21.8554 20.6975 20.5527C19.6843 19.2501 18.8883 17.2961 19.1054 15.2698C19.3225 13.3159 20.0462 11.3619 21.5659 9.76983C23.0856 8.17772 26.1251 7.09219 28.9475 7.16456C33.2172 7.23693 36.7633 8.32246 39.658 10.5659C40.8159 11.4343 42.4804 11.4343 43.4212 10.3488C43.6383 10.1317 43.8554 9.84219 44.0725 9.48035C44.2896 9.11851 44.5067 8.82904 44.6514 8.46719C45.158 7.38167 44.9409 6.00667 44.0001 5.21062C42.7698 4.05272 41.033 2.89483 38.862 1.88167C36.3291 0.723774 32.9277 0.0724583 29.0198 8.99071e-05C25.5462 -0.0722785 22.1448 0.361932 19.2501 1.23035C16.3554 2.09877 13.8225 3.61851 11.7238 5.7172C9.62511 7.88825 8.82906 10.204 8.53959 13.3882C8.32248 15.704 8.75669 17.8027 9.91459 19.6843C11.0001 21.5659 12.8817 23.2304 14.908 24.0988C14.0396 24.8948 12.3751 26.4869 10.783 28.2238C9.1909 29.9606 7.74353 31.2632 6.58564 32.0593C5.78959 32.6382 4.77643 33.0001 3.6909 33.2172C2.02643 33.579 0.651427 34.8817 0.217217 36.5461C0.217217 36.6185 0.144848 36.7632 0.144848 36.8356C-0.216994 38.3554 -0.0722571 39.8751 0.434322 41.2501C0.940901 42.6251 2.46064 43.2764 3.6909 43.3488C5.50011 43.4935 7.09222 42.9869 8.82906 41.9014C10.4935 40.8159 11.9409 39.5856 13.0988 38.1382C14.2567 36.6909 15.7041 34.8093 17.5133 32.4935C18.7435 30.9014 19.8291 29.5264 20.8422 28.4409C21.6383 27.5725 22.7238 27.0659 23.8817 26.9211C23.9541 26.9211 24.0264 26.9211 24.1712 26.9211C23.3751 30.1054 22.8685 32.9277 22.7962 35.4606C22.7238 37.9211 23.2304 39.9475 24.4606 41.3948C25.6185 42.8422 27.5001 43.783 29.8883 43.783C31.6251 43.783 33.2896 43.4211 34.8817 42.6975C36.4738 41.9738 37.9212 41.033 39.1514 39.8751C40.3817 38.7172 41.3948 37.3422 42.1909 36.1843C42.2633 36.0396 42.3356 35.9672 42.408 35.8225C43.0593 37.4869 44.0001 38.9343 45.3751 40.1646C47.8356 42.408 51.4541 43.5659 56.2304 43.6382C60.7896 43.7106 64.6251 42.8422 67.5922 41.1777C68.0264 40.9606 68.4606 40.5988 68.8948 40.3093C68.7501 40.7435 68.6054 41.3225 68.4606 41.7567C68.3159 42.1909 68.3883 42.5527 68.6777 42.8422C69.4738 43.8554 71.3554 44.0725 74.6843 43.6382C77.4343 43.3488 78.8093 42.6975 79.0264 41.9738C79.8225 39.079 80.9804 36.0396 81.9935 32.8554C82.0659 37.0527 82.7172 40.0198 84.1646 41.3948C85.9014 43.204 88.1448 43.4211 90.8948 41.9738C91.7633 41.5396 92.8488 40.5264 94.0067 38.8619C95.1646 37.1975 96.1054 35.2435 96.7567 33.1448C96.6843 36.4014 97.1909 39.079 98.2041 40.8159C99.2172 42.6251 100.592 43.4935 102.474 43.4935C107.829 43.4935 112.605 39.658 117.092 32.4935C117.165 32.4935 117.237 31.8422 116.369 31.2632Z" fill="#CCF37C"/>
<path d="M147.021 20.1184C147.021 20.3356 146.948 20.5527 146.876 20.6974C146.803 20.8421 146.731 20.9869 146.586 21.1316C146.442 21.2763 146.297 21.3487 146.152 21.4211C146.007 21.4934 145.863 21.4934 145.718 21.4934H142.968V25.9079C142.968 26.125 142.896 26.3421 142.823 26.4869C142.751 26.6316 142.606 26.7763 142.534 26.8487C142.389 26.9211 142.244 26.9934 142.099 27.0658C141.955 27.1382 141.81 27.1382 141.665 27.1382C141.448 27.1382 141.231 27.0658 141.014 26.9934C140.797 26.9211 140.724 26.7763 140.58 26.704C140.507 26.5592 140.363 26.4145 140.363 26.2698C140.29 26.125 140.29 25.9803 140.29 25.8356V19.829C140.29 19.1777 140.652 18.8882 141.303 18.8882H145.718C145.863 18.8882 146.007 18.8882 146.152 18.9606C146.297 19.0329 146.442 19.1053 146.514 19.25C146.659 19.3224 146.731 19.4671 146.803 19.6119C146.876 19.7566 147.021 19.9737 147.021 20.1184Z" fill="#333333"/>
<path d="M147.31 23.0856C147.31 22.5066 147.455 22 147.672 21.4935C147.889 20.9869 148.178 20.5527 148.54 20.1908C148.902 19.829 149.336 19.5395 149.843 19.3224C150.35 19.1053 150.856 18.9606 151.435 18.9606C152.014 18.9606 152.521 19.1053 153.027 19.3224C153.534 19.5395 153.968 19.829 154.33 20.1908C154.692 20.5527 154.981 20.9869 155.198 21.4935C155.415 22 155.56 22.5066 155.56 23.0856C155.56 23.6645 155.415 24.1711 155.198 24.6777C154.981 25.1843 154.692 25.6185 154.33 25.9803C153.968 26.3422 153.534 26.6316 153.027 26.8487C152.521 27.0658 152.014 27.2106 151.435 27.2106C150.856 27.2106 150.35 27.0658 149.843 26.8487C149.336 26.6316 148.902 26.3422 148.54 25.9803C148.178 25.6185 147.889 25.1843 147.672 24.6777C147.455 24.1711 147.31 23.5922 147.31 23.0856ZM149.915 23.0856C149.915 23.3027 149.988 23.5198 150.06 23.7369C150.132 23.954 150.277 24.0987 150.35 24.2435C150.494 24.3882 150.639 24.5329 150.856 24.6053C151.073 24.6777 151.218 24.75 151.435 24.75C151.652 24.75 151.869 24.6777 152.014 24.6053C152.231 24.5329 152.376 24.3882 152.521 24.2435C152.665 24.0987 152.738 23.954 152.81 23.7369C152.882 23.5198 152.955 23.3027 152.955 23.0856C152.955 22.8685 152.882 22.6514 152.81 22.4343C152.738 22.2172 152.593 22.0724 152.521 21.9277C152.376 21.7829 152.231 21.6382 152.014 21.5658C151.797 21.4935 151.652 21.4211 151.435 21.4211C151.218 21.4211 151.001 21.4935 150.856 21.5658C150.639 21.6382 150.494 21.7829 150.35 21.9277C150.205 22.0724 150.132 22.2172 150.06 22.4343C149.988 22.6514 149.915 22.8685 149.915 23.0856Z" fill="#333333"/>
<path d="M157.152 19.6119C157.152 19.1053 157.369 18.8882 157.876 18.8882C158.093 18.8882 158.31 18.9606 158.527 19.1053C158.672 19.25 158.817 19.4671 158.961 19.829L159.468 21.1316H159.757V28.4408C159.757 28.6579 159.757 28.8027 159.685 28.9474C159.613 29.0921 159.54 29.2369 159.396 29.3816C159.251 29.5263 159.106 29.5987 158.961 29.6711C158.817 29.7434 158.672 29.7434 158.455 29.7434C158.238 29.7434 158.093 29.7434 157.948 29.6711C157.803 29.5987 157.659 29.5263 157.514 29.3816C157.369 29.2369 157.297 29.1645 157.224 28.9474C157.152 28.8027 157.152 28.5856 157.152 28.4408V19.6119ZM157.876 23.0856C157.876 22.5066 157.948 22 158.165 21.4934C158.382 20.9869 158.599 20.5527 158.889 20.1908C159.178 19.829 159.613 19.5395 160.047 19.3224C160.481 19.1053 160.988 18.9606 161.567 18.9606C162.146 18.9606 162.652 19.1053 163.159 19.3224C163.665 19.5395 164.027 19.829 164.389 20.1908C164.751 20.5527 164.968 20.9869 165.185 21.4934C165.402 22 165.474 22.5066 165.474 23.0856C165.474 23.6645 165.402 24.1711 165.185 24.6777C164.968 25.1842 164.751 25.6184 164.389 25.9803C164.027 26.3421 163.665 26.6316 163.159 26.8487C162.652 27.0658 162.146 27.2105 161.567 27.2105C161.132 27.2105 160.626 27.0658 160.192 26.8487C159.757 26.6316 159.323 26.3421 159.034 25.9803C158.672 25.6184 158.382 25.1842 158.238 24.6777C157.948 24.1711 157.876 23.5921 157.876 23.0856ZM159.757 23.0856C159.757 23.3027 159.83 23.5198 159.902 23.7369C159.974 23.954 160.119 24.0987 160.192 24.2434C160.336 24.3882 160.481 24.5329 160.698 24.6053C160.915 24.6777 161.06 24.75 161.277 24.75C161.494 24.75 161.711 24.6777 161.856 24.6053C162.073 24.5329 162.218 24.3882 162.363 24.2434C162.507 24.0987 162.58 23.954 162.652 23.7369C162.724 23.5198 162.797 23.3027 162.797 23.0856C162.797 22.8684 162.724 22.6513 162.652 22.4342C162.58 22.2171 162.435 22.0724 162.363 21.9277C162.218 21.7829 162.073 21.6382 161.856 21.5658C161.639 21.4934 161.494 21.4211 161.277 21.4211C161.06 21.4211 160.843 21.4934 160.698 21.5658C160.481 21.6382 160.336 21.7829 160.192 21.9277C160.047 22.0724 159.974 22.2171 159.902 22.4342C159.83 22.6513 159.757 22.8684 159.757 23.0856Z" fill="#333333"/>
<path d="M166.777 22.1447C166.777 21.7105 166.849 21.3487 167.067 20.9868C167.211 20.625 167.501 20.3355 167.79 20.046C168.08 19.7566 168.442 19.5395 168.803 19.3947C169.165 19.25 169.599 19.1776 170.034 19.1776H172.784C173.001 19.1776 173.146 19.25 173.218 19.3223C173.29 19.3947 173.435 19.4671 173.435 19.6118C173.507 19.7566 173.507 19.8289 173.507 19.9737C173.507 20.1184 173.507 20.1908 173.507 20.3355V26.1973C173.507 26.3421 173.507 26.4868 173.435 26.6316C173.363 26.7763 173.29 26.921 173.218 26.9934C173.146 27.1381 173.001 27.2105 172.856 27.2829C172.711 27.3552 172.494 27.4276 172.349 27.4276C172.132 27.4276 171.988 27.3552 171.771 27.2829C171.553 27.2105 171.481 27.1381 171.336 26.9934C171.192 26.8487 171.119 26.7763 171.047 26.6316C170.974 26.4868 170.974 26.3421 170.974 26.1973V25.2566H170.034C169.599 25.2566 169.165 25.1842 168.803 25.0395C168.442 24.8947 168.08 24.6776 167.79 24.4605C167.501 24.171 167.284 23.8816 167.067 23.5197C166.849 22.9408 166.777 22.5066 166.777 22.1447ZM170.323 24.8947L169.021 26.7039C168.876 26.8487 168.803 26.921 168.659 27.0658C168.514 27.2105 168.369 27.2105 168.224 27.2105C168.08 27.2105 167.935 27.2105 167.718 27.1381C167.573 27.0658 167.428 26.9934 167.284 26.921C167.139 26.7763 167.067 26.7039 166.994 26.5592C166.922 26.4145 166.849 26.2697 166.849 26.125C166.849 25.9802 166.849 25.8355 166.922 25.6184C166.994 25.4737 167.067 25.3289 167.139 25.1842L168.369 23.375L170.323 24.8947ZM169.31 22.1447C169.31 22.4342 169.382 22.6513 169.599 22.796C169.817 22.9408 170.034 23.0131 170.323 23.0131H170.974V21.1316H170.323C170.178 21.1316 170.034 21.1316 169.961 21.2039C169.817 21.2763 169.744 21.3487 169.672 21.421C169.599 21.4934 169.527 21.6381 169.455 21.7105C169.31 21.8552 169.31 22 169.31 22.1447Z" fill="#333333"/>
<path d="M177.56 20.5527C177.56 20.7698 177.56 20.9869 177.632 21.204C177.705 21.4211 177.777 21.5658 177.922 21.7106C178.067 21.8553 178.211 22 178.356 22.0724C178.501 22.1448 178.718 22.2171 178.935 22.2171C179.152 22.2171 179.369 22.1448 179.514 22.0724C179.659 22 179.876 21.8553 180.021 21.7106C180.165 21.5658 180.238 21.4211 180.31 21.204C180.382 20.9869 180.455 20.7698 180.455 20.5527L181.54 23.4474C181.323 23.6645 181.034 23.8816 180.744 24.0264C180.455 24.1711 180.238 24.3158 179.948 24.3882C179.659 24.4606 179.442 24.5329 179.225 24.6053C179.007 24.6777 178.718 24.6777 178.573 24.6777C177.994 24.6777 177.488 24.6053 177.054 24.3882C176.619 24.1711 176.185 23.8816 175.896 23.5198C175.606 23.1579 175.317 22.7237 175.172 22.2171C175.027 21.7106 174.955 21.204 174.955 20.625V20.3356C174.955 20.1908 174.955 19.9737 175.027 19.829C175.1 19.6843 175.172 19.5395 175.317 19.3948C175.461 19.25 175.534 19.1777 175.751 19.1053C175.896 19.0329 176.113 19.0329 176.257 19.0329C176.475 19.0329 176.619 19.0329 176.764 19.1053C176.909 19.1777 177.054 19.25 177.198 19.3948C177.343 19.5395 177.415 19.6119 177.488 19.829C177.56 20.0461 177.56 20.1185 177.56 20.3356V20.5527ZM183.132 25.8356C183.132 25.9803 183.132 26.125 183.06 26.2698C182.988 26.4145 182.915 26.5593 182.843 26.704C182.771 26.8487 182.626 26.9211 182.409 26.9935C182.192 27.0658 182.047 27.1382 181.757 27.1382C181.613 27.1382 181.468 27.1382 181.323 27.0658C181.179 26.9935 181.034 26.9211 180.961 26.8487C180.889 26.7764 180.744 26.6316 180.672 26.5593C180.6 26.4145 180.527 26.3421 180.527 26.1974C180.527 26.0527 180.527 25.9803 180.527 25.8356C180.527 25.6908 180.527 25.5461 180.527 25.4014C180.527 25.2566 180.527 25.1119 180.527 25.0395C180.527 24.9671 180.527 24.8224 180.527 24.75V22.2895V20.2632C180.527 20.0461 180.527 19.9014 180.6 19.7566C180.672 19.6119 180.744 19.4672 180.889 19.3224C181.034 19.1777 181.179 19.1053 181.323 19.0329C181.468 18.9606 181.685 18.9606 181.83 18.9606C181.975 18.9606 182.192 18.9606 182.336 19.0329C182.481 19.1053 182.626 19.1777 182.771 19.3224C182.915 19.4672 182.988 19.5395 183.06 19.7566C183.132 19.9014 183.132 20.1185 183.132 20.2632V25.8356Z" fill="#333333"/>
<path d="M192.179 23.0856C192.179 23.6645 192.106 24.1711 191.961 24.6777C191.817 25.1842 191.6 25.6184 191.31 25.9803C191.021 26.3421 190.659 26.6316 190.225 26.8487C189.79 27.0658 189.284 27.2106 188.705 27.2106C188.126 27.2106 187.619 27.0658 187.113 26.8487C186.606 26.6316 186.172 26.3421 185.81 25.9803C185.448 25.6184 185.159 25.1842 184.942 24.6777C184.725 24.1711 184.58 23.6645 184.58 23.0856C184.58 22.5066 184.725 22 184.942 21.4934C185.159 20.9869 185.448 20.5527 185.81 20.1908C186.172 19.829 186.606 19.5395 187.113 19.3224C187.619 19.1053 188.126 18.9606 188.705 18.9606C189.284 18.9606 189.79 19.1053 190.225 19.3224C190.659 19.5395 191.021 19.829 191.31 20.1908C191.6 20.5527 191.817 20.9869 191.961 21.4934C192.106 21.9277 192.179 22.5066 192.179 23.0856ZM190.225 23.0856C190.225 22.8684 190.152 22.6513 190.08 22.4342C190.007 22.2171 189.863 22.0724 189.79 21.9277C189.646 21.7829 189.501 21.6382 189.284 21.5658C189.067 21.4934 188.922 21.4211 188.705 21.4211C188.488 21.4211 188.271 21.4934 188.126 21.5658C187.909 21.6382 187.764 21.7829 187.619 21.9277C187.475 22.0724 187.402 22.2171 187.33 22.4342C187.257 22.6513 187.185 22.8684 187.185 23.0856C187.185 23.3027 187.257 23.5198 187.33 23.7369C187.402 23.954 187.547 24.0987 187.619 24.2434C187.764 24.3882 187.909 24.5329 188.126 24.6053C188.343 24.6777 188.488 24.75 188.705 24.75C188.922 24.75 189.139 24.6777 189.284 24.6053C189.501 24.5329 189.646 24.3882 189.79 24.2434C189.935 24.0987 190.007 23.954 190.08 23.7369C190.152 23.5198 190.225 23.3027 190.225 23.0856ZM192.83 23.1579C192.83 23.375 192.83 23.5198 192.757 23.6645C192.685 23.8092 192.613 23.954 192.468 24.0987C192.323 24.2434 192.179 24.3158 192.034 24.3882C191.889 24.4606 191.672 24.4606 191.527 24.4606C191.382 24.4606 191.165 24.4606 191.021 24.3882C190.876 24.3158 190.731 24.2434 190.586 24.0987C190.442 23.954 190.369 23.8092 190.297 23.6645C190.225 23.5198 190.225 23.3027 190.225 23.1579V21.1316H190.514L191.021 19.829C191.093 19.5395 191.238 19.25 191.455 19.1053C191.6 18.9606 191.817 18.8882 192.106 18.8882C192.613 18.8882 192.83 19.1053 192.83 19.6119V23.1579ZM192.83 26.4869C192.83 26.704 192.757 26.9211 192.685 27.0658C192.54 27.2106 192.396 27.2829 192.106 27.2829C191.6 27.2829 191.31 26.9934 191.093 26.4145L190.586 25.0395H190.297V23.1579C190.297 22.9408 190.297 22.7961 190.369 22.6513C190.442 22.5066 190.514 22.3619 190.659 22.2171C190.804 22.0724 190.948 22 191.093 21.9277C191.238 21.8553 191.455 21.8553 191.6 21.8553C191.817 21.8553 191.961 21.8553 192.106 21.9277C192.251 22 192.396 22.0724 192.54 22.2171C192.685 22.3619 192.757 22.5066 192.83 22.6513C192.902 22.7961 192.902 23.0132 192.902 23.1579V26.4869H192.83Z" fill="#333333"/>
<path d="M194.639 22.1447C194.639 21.7105 194.711 21.3487 194.928 20.9868C195.073 20.625 195.363 20.3355 195.652 20.046C195.942 19.7566 196.303 19.5395 196.665 19.3947C197.027 19.25 197.461 19.1776 197.895 19.1776H200.645C200.863 19.1776 201.007 19.25 201.08 19.3223C201.152 19.3947 201.297 19.4671 201.297 19.6118C201.369 19.7566 201.369 19.8289 201.369 19.9737C201.369 20.1184 201.369 20.1908 201.369 20.3355V26.1973C201.369 26.3421 201.369 26.4868 201.297 26.6316C201.224 26.7763 201.152 26.921 201.08 26.9934C201.007 27.1381 200.863 27.2105 200.718 27.2829C200.573 27.3552 200.356 27.4276 200.211 27.4276C199.994 27.4276 199.849 27.3552 199.632 27.2829C199.415 27.2105 199.343 27.1381 199.198 26.9934C199.053 26.8487 198.981 26.7763 198.909 26.6316C198.836 26.4868 198.836 26.3421 198.836 26.1973V25.2566H197.895C197.461 25.2566 197.027 25.1842 196.665 25.0395C196.303 24.8947 195.942 24.6776 195.652 24.4605C195.363 24.171 195.145 23.8816 194.928 23.5197C194.711 22.9408 194.639 22.5066 194.639 22.1447ZM198.257 24.8947L196.955 26.7039C196.81 26.8487 196.738 26.921 196.593 27.0658C196.448 27.2105 196.303 27.2105 196.159 27.2105C196.014 27.2105 195.869 27.2105 195.652 27.1381C195.507 27.0658 195.363 26.9934 195.218 26.921C195.073 26.7763 195.001 26.7039 194.928 26.5592C194.856 26.4145 194.784 26.2697 194.784 26.125C194.784 25.9802 194.784 25.8355 194.856 25.6184C194.928 25.4737 195.001 25.3289 195.073 25.1842L196.303 23.375L198.257 24.8947ZM197.172 22.1447C197.172 22.4342 197.244 22.6513 197.461 22.796C197.678 22.9408 197.895 23.0131 198.185 23.0131H198.836V21.1316H198.185C198.04 21.1316 197.895 21.1316 197.823 21.2039C197.678 21.2763 197.606 21.3487 197.534 21.421C197.461 21.4934 197.389 21.6381 197.317 21.7105C197.172 21.8552 197.172 22 197.172 22.1447Z" fill="#333333"/>
<path d="M140.725 43.8553C140.507 43.8553 140.363 43.8553 140.218 43.7829C140.073 43.7105 139.928 43.6381 139.856 43.4934C139.784 43.3487 139.639 43.2763 139.639 43.1316C139.567 42.9868 139.567 42.8421 139.567 42.6974V40.1645C139.567 40.0197 139.567 39.875 139.639 39.7303C139.711 39.5855 139.784 39.5131 139.928 39.3684C140.073 39.296 140.146 39.2237 140.363 39.1513C140.507 39.0789 140.652 39.0789 140.797 39.0789H148.251C148.468 39.0789 148.613 39.0789 148.757 39.1513C148.902 39.1513 149.047 39.2237 149.119 39.3684C149.192 39.4408 149.264 39.5855 149.336 39.8026C149.409 40.0197 149.409 40.2368 149.409 40.5987V42.7697C149.409 42.9145 149.409 43.0592 149.336 43.2039C149.264 43.3487 149.192 43.4934 149.047 43.5658C148.902 43.6381 148.83 43.7829 148.685 43.7829C148.54 43.7829 148.396 43.8553 148.251 43.8553C148.106 43.8553 147.961 43.8553 147.744 43.7829C147.6 43.7105 147.455 43.6381 147.31 43.5658C147.165 43.4934 147.093 43.3487 147.021 43.2039C146.948 43.0592 146.876 42.9145 146.876 42.6974V41.5395H142.027V42.6974C142.027 42.8421 142.027 42.9868 141.955 43.1316C141.882 43.2763 141.81 43.421 141.665 43.4934C141.521 43.6381 141.376 43.7105 141.231 43.7829C141.086 43.8553 140.942 43.8553 140.725 43.8553ZM143.909 34.8092C143.909 35.0263 143.909 35.3158 143.909 35.6053C143.909 35.8947 143.909 36.1842 143.909 36.546C143.909 36.8355 143.836 37.1974 143.836 37.4868C143.764 37.7763 143.692 38.1381 143.619 38.4276C143.547 38.7171 143.402 38.9342 143.185 39.2237C142.968 39.5131 142.823 39.6579 142.534 39.7303C142.317 39.8026 142.172 39.9474 142.027 40.0197C141.882 40.1645 141.738 40.2368 141.665 40.3816C141.521 40.5263 141.448 40.5987 141.303 40.671C141.159 40.7434 141.014 40.8158 140.869 40.8158C140.797 40.8158 140.652 40.8158 140.58 40.7434C140.507 40.671 140.363 40.5987 140.29 40.5263C140.218 40.4539 140.146 40.3092 140.073 40.1645C140.001 40.0197 140.001 39.9474 139.928 39.8026C139.928 39.6579 139.928 39.5855 139.928 39.5131C139.928 39.4408 140.001 39.3684 140.073 39.296C140.435 39.1513 140.652 38.9342 140.869 38.6447C141.086 38.3553 141.231 38.0658 141.376 37.7763C141.521 37.4868 141.593 37.125 141.665 36.7631C141.738 36.4013 141.738 36.1118 141.81 35.8224C141.81 35.5329 141.81 35.2434 141.81 34.9539C141.81 34.6645 141.81 34.5197 141.81 34.375C141.81 34.2303 141.81 34.1579 141.882 34.0132C141.882 33.8684 141.955 33.796 142.027 33.7237C142.1 33.6513 142.172 33.5789 142.317 33.5066C142.389 33.4342 142.534 33.4342 142.678 33.4342C142.896 33.4342 143.113 33.4342 143.257 33.5066C143.402 33.5789 143.619 33.5789 143.764 33.6513C143.909 33.7237 144.053 33.796 144.126 33.9408C144.198 34.0855 144.271 34.2303 144.271 34.5197L143.909 34.8092ZM142.461 34.5197C142.317 34.5197 142.244 34.4474 142.172 34.3026C142.1 34.1579 142.1 34.0855 142.172 33.9408C142.244 33.796 142.244 33.7237 142.389 33.5789C142.461 33.5066 142.606 33.4342 142.751 33.4342H147.093C147.238 33.4342 147.382 33.4342 147.527 33.5066C147.672 33.5789 147.744 33.6513 147.889 33.7237C147.961 33.796 148.034 33.9408 148.106 34.0855C148.178 34.2303 148.178 34.375 148.178 34.5197V40.3092C148.178 40.3816 148.178 40.4539 148.178 40.5263C148.178 40.5987 148.106 40.671 148.106 40.7434C148.106 40.8158 148.034 40.8881 148.034 40.9605C148.034 41.0329 147.961 41.1053 147.961 41.1053C147.961 41.25 147.889 41.3224 147.817 41.3947C147.744 41.4671 147.527 41.5395 147.238 41.5395C147.021 41.5395 146.876 41.5395 146.659 41.4671C146.442 41.3947 146.297 41.3224 146.225 41.25C146.08 41.1776 146.007 41.0329 145.935 40.8881C145.863 40.7434 145.79 40.5263 145.79 40.3092V35.8224H143.185C143.113 35.8224 143.04 35.8224 142.968 35.75C142.896 35.6776 142.896 35.6053 142.896 35.5329C142.896 35.4605 142.896 35.3158 142.896 35.2434C142.896 35.171 142.896 35.0263 142.896 34.9539C142.896 34.8816 142.896 34.7368 142.823 34.6645C142.751 34.5921 142.751 34.5197 142.606 34.5197H142.461Z" fill="#333333"/>
<path d="M150.132 37.4868C150.132 36.9079 150.277 36.4013 150.494 35.8947C150.711 35.3881 151.001 34.9539 151.363 34.5921C151.724 34.2302 152.159 33.9408 152.665 33.7237C153.172 33.5066 153.678 33.3618 154.257 33.3618C154.836 33.3618 155.343 33.5066 155.849 33.7237C156.356 33.9408 156.79 34.2302 157.152 34.5921C157.514 34.9539 157.803 35.3881 158.02 35.8947C158.238 36.4013 158.382 36.9079 158.382 37.4868C158.382 38.0658 158.238 38.5723 158.02 39.0789C157.803 39.5855 157.514 40.0197 157.152 40.3816C156.79 40.7434 156.356 41.0329 155.849 41.25C155.343 41.4671 154.836 41.6118 154.257 41.6118C153.678 41.6118 153.172 41.4671 152.665 41.25C152.159 41.0329 151.724 40.7434 151.363 40.3816C151.001 40.0197 150.711 39.5855 150.494 39.0789C150.277 38.6447 150.132 38.0658 150.132 37.4868ZM152.81 37.4868C152.81 37.7039 152.882 37.921 152.955 38.1381C153.027 38.3552 153.172 38.5 153.244 38.6447C153.389 38.7894 153.534 38.9342 153.751 39.0066C153.968 39.0789 154.113 39.1513 154.33 39.1513C154.547 39.1513 154.764 39.0789 154.909 39.0066C155.126 38.9342 155.27 38.7894 155.415 38.6447C155.56 38.5 155.632 38.3552 155.705 38.1381C155.777 37.921 155.849 37.7039 155.849 37.4868C155.849 37.2697 155.777 37.0526 155.705 36.8355C155.632 36.6184 155.488 36.4737 155.415 36.3289C155.27 36.1842 155.126 36.0394 154.909 35.9671C154.692 35.8947 154.547 35.8223 154.33 35.8223C154.113 35.8223 153.895 35.8947 153.751 35.9671C153.534 36.0394 153.389 36.1842 153.244 36.3289C153.099 36.4737 153.027 36.6184 152.955 36.8355C152.81 37.0526 152.81 37.2697 152.81 37.4868Z" fill="#333333"/>
<path d="M166.632 34.5921C166.777 34.7369 166.85 34.8816 166.922 35.0263C166.994 35.1711 167.067 35.3158 167.067 35.5329C167.067 35.6777 167.067 35.8224 166.994 36.0395C166.922 36.1842 166.85 36.329 166.705 36.4013C166.56 36.4737 166.488 36.6185 166.271 36.6185C166.126 36.6908 165.909 36.6908 165.764 36.6908C165.619 36.6908 165.475 36.6185 165.402 36.5461C165.33 36.4737 165.113 36.4013 165.04 36.4013C164.896 36.329 164.751 36.2566 164.679 36.2566C164.606 36.2566 164.389 36.1119 164.244 36.1119C164.027 36.0395 163.738 36.0395 163.521 36.0395C163.231 36.0395 163.014 36.1119 162.797 36.2566C162.58 36.4013 162.435 36.5461 162.29 36.7632C162.146 36.9803 162.073 37.2698 162.073 37.5592C162.073 37.8487 162.146 38.1382 162.29 38.3553C162.435 38.5724 162.58 38.7171 162.797 38.8619C163.014 39.0066 163.231 39.079 163.448 39.079C163.738 39.079 163.955 39.079 164.244 39.0066C164.461 38.9342 164.606 38.9342 164.823 38.7895C164.968 38.7171 165.185 38.5724 165.33 38.5C165.475 38.4277 165.692 38.3553 165.909 38.3553C166.126 38.3553 166.343 38.3553 166.488 38.5C166.705 38.5724 166.85 38.7171 166.922 38.9342C167.067 39.079 167.067 39.2961 167.067 39.5856C167.067 39.875 166.994 40.1645 166.777 40.3816C166.56 40.5987 166.343 40.8882 166.054 41.1053C165.764 41.3224 165.402 41.4671 164.968 41.6119C164.534 41.7566 164.1 41.829 163.593 41.829C163.014 41.829 162.507 41.6842 162.001 41.4671C161.494 41.25 161.06 40.9606 160.698 40.5987C160.336 40.2369 160.047 39.8027 159.83 39.2961C159.613 38.7895 159.468 38.2829 159.468 37.704C159.468 37.125 159.613 36.6185 159.83 36.1119C160.047 35.6053 160.336 35.1711 160.698 34.8092C161.06 34.4474 161.494 34.1579 162.001 33.9408C162.507 33.7237 163.014 33.579 163.593 33.579C163.882 33.579 164.172 33.579 164.461 33.6513C164.751 33.7237 165.04 33.7961 165.33 33.8685C165.619 33.9408 165.836 34.0856 166.054 34.2303C166.271 34.375 166.488 34.375 166.632 34.5921Z" fill="#333333"/>
<path d="M175.751 34.6645C175.751 34.8816 175.751 35.0263 175.679 35.171C175.606 35.3158 175.534 35.4605 175.461 35.6052C175.389 35.75 175.244 35.8223 175.1 35.8947C174.955 35.9671 174.81 35.9671 174.665 35.9671H173.146V40.5263C173.146 40.671 173.146 40.8158 173.073 40.9605C173.001 41.1052 172.929 41.25 172.784 41.3223C172.639 41.3947 172.567 41.5394 172.422 41.6118C172.277 41.6842 172.132 41.6842 171.988 41.6842C171.771 41.6842 171.626 41.6842 171.481 41.6118C171.336 41.5394 171.192 41.4671 171.047 41.3223C170.902 41.1776 170.83 41.1052 170.757 40.9605C170.685 40.8158 170.685 40.671 170.685 40.5263V35.9671H169.165C169.021 35.9671 168.876 35.8947 168.731 35.8223C168.586 35.75 168.514 35.6776 168.369 35.5329C168.297 35.3881 168.225 35.2434 168.152 35.0987C168.08 34.9539 168.08 34.8092 168.08 34.6645C168.08 34.5197 168.08 34.375 168.152 34.2302C168.225 34.0855 168.297 33.9408 168.369 33.796C168.442 33.6513 168.586 33.5789 168.731 33.5066C168.876 33.4342 169.021 33.3618 169.165 33.3618H174.81C174.955 33.3618 175.1 33.3618 175.244 33.4342C175.389 33.5066 175.461 33.5789 175.606 33.7237C175.679 33.8684 175.823 33.9408 175.823 34.1579C175.823 34.375 175.751 34.5197 175.751 34.6645Z" fill="#333333"/>
<path d="M183.784 37.4868C183.784 38.0658 183.711 38.5723 183.567 39.0789C183.422 39.5855 183.205 40.0197 182.915 40.3816C182.626 40.7434 182.264 41.0329 181.83 41.25C181.396 41.4671 180.889 41.6118 180.31 41.6118C179.731 41.6118 179.225 41.4671 178.718 41.25C178.211 41.0329 177.777 40.7434 177.415 40.3816C177.053 40.0197 176.764 39.5855 176.547 39.0789C176.33 38.5723 176.185 38.0658 176.185 37.4868C176.185 36.9079 176.33 36.4013 176.547 35.8947C176.764 35.3881 177.053 34.9539 177.415 34.5921C177.777 34.2302 178.211 33.9408 178.718 33.7237C179.225 33.5066 179.731 33.3618 180.31 33.3618C180.889 33.3618 181.396 33.5066 181.83 33.7237C182.264 33.9408 182.626 34.2302 182.915 34.5921C183.205 34.9539 183.422 35.3881 183.567 35.8947C183.711 36.4013 183.784 36.9802 183.784 37.4868ZM181.83 37.4868C181.83 37.2697 181.757 37.0526 181.685 36.8355C181.613 36.6184 181.468 36.4737 181.396 36.3289C181.251 36.1842 181.106 36.0394 180.889 35.9671C180.672 35.8947 180.527 35.8223 180.31 35.8223C180.093 35.8223 179.876 35.8947 179.731 35.9671C179.514 36.0394 179.369 36.1842 179.225 36.3289C179.08 36.4737 179.007 36.6184 178.935 36.8355C178.863 37.0526 178.79 37.2697 178.79 37.4868C178.79 37.7039 178.863 37.921 178.935 38.1381C179.007 38.3552 179.152 38.5 179.225 38.6447C179.369 38.7895 179.514 38.9342 179.731 39.0066C179.948 39.0789 180.093 39.1513 180.31 39.1513C180.527 39.1513 180.744 39.0789 180.889 39.0066C181.106 38.9342 181.251 38.7895 181.396 38.6447C181.54 38.5 181.613 38.3552 181.685 38.1381C181.757 37.921 181.83 37.7039 181.83 37.4868ZM184.435 37.6316C184.435 37.8487 184.435 37.9934 184.363 38.1381C184.29 38.2829 184.218 38.4276 184.073 38.5723C183.928 38.7171 183.784 38.7895 183.639 38.8618C183.494 38.9342 183.277 38.9342 183.132 38.9342C182.988 38.9342 182.771 38.9342 182.626 38.8618C182.481 38.7895 182.336 38.7171 182.192 38.5723C182.047 38.4276 181.975 38.2829 181.902 38.1381C181.83 37.9934 181.83 37.8487 181.83 37.6316V35.6052H182.119L182.626 34.3026C182.698 34.0131 182.843 33.7237 183.06 33.5789C183.205 33.4342 183.422 33.3618 183.711 33.3618C184.218 33.3618 184.435 33.5789 184.435 34.0855V37.6316ZM184.435 40.8881C184.435 41.1052 184.363 41.3223 184.29 41.4671C184.146 41.6118 184.001 41.6842 183.711 41.6842C183.205 41.6842 182.915 41.3947 182.698 40.8158L182.192 39.4408H181.902V37.5592C181.902 37.3421 181.902 37.1973 181.975 37.0526C182.047 36.9079 182.119 36.7631 182.264 36.6184C182.409 36.4737 182.553 36.4013 182.698 36.3289C182.843 36.2566 183.06 36.2566 183.205 36.2566C183.422 36.2566 183.567 36.2566 183.711 36.3289C183.856 36.4013 184.001 36.4737 184.146 36.6184C184.29 36.7631 184.363 36.9079 184.435 37.0526C184.507 37.1973 184.507 37.4145 184.507 37.5592V40.8881H184.435Z" fill="#333333"/>
<path d="M186.461 33.796C186.461 33.7237 186.461 33.6513 186.461 33.6513C186.461 33.5789 186.534 33.5789 186.534 33.5066C186.606 33.5066 186.606 33.4342 186.679 33.4342C186.751 33.4342 186.823 33.4342 186.968 33.4342H191.31C191.889 33.4342 192.323 33.5789 192.685 33.8684C193.047 34.1579 193.336 34.5921 193.481 35.0987C193.481 35.2434 193.554 35.3881 193.554 35.5329C193.554 35.6776 193.554 35.8224 193.554 35.9671C193.554 36.1118 193.481 36.2566 193.481 36.4013C193.409 36.546 193.409 36.6184 193.336 36.7632C193.264 36.8355 193.192 36.9079 193.192 36.9803C193.119 37.0526 193.119 37.0526 193.047 37.125C193.119 37.125 193.119 37.1974 193.264 37.2697C193.409 37.3421 193.481 37.4145 193.554 37.5592C193.626 37.7039 193.771 37.8487 193.843 38.0658C193.915 38.2829 193.988 38.5 193.988 38.7171C193.988 38.8618 193.988 39.0066 193.988 39.1513C193.988 39.296 193.988 39.3684 193.915 39.5132C193.843 39.8026 193.771 40.0921 193.554 40.3816C193.409 40.671 193.192 40.8882 192.975 41.0329C192.757 41.1776 192.468 41.3224 192.179 41.4671C191.889 41.5395 191.6 41.6118 191.31 41.6118H187.547C187.402 41.6118 187.257 41.6118 187.113 41.5395C186.968 41.4671 186.896 41.3947 186.823 41.3224C186.751 41.25 186.679 41.1053 186.606 40.9605C186.534 40.8158 186.534 40.671 186.534 40.5987V34.5921C186.534 34.5197 186.534 34.5197 186.534 34.4474C186.534 34.375 186.534 34.375 186.534 34.3026V34.2303C186.534 34.1579 186.534 34.0855 186.534 34.0855C186.461 33.9408 186.461 33.8684 186.461 33.796ZM189.139 37.921V39.3684H190.514C190.586 39.3684 190.659 39.3684 190.804 39.296C190.876 39.296 190.948 39.2237 191.021 39.1513C191.093 39.0789 191.165 39.0066 191.165 38.9342C191.165 38.8618 191.238 38.7171 191.238 38.6447C191.238 38.4276 191.165 38.2105 191.021 38.1382C190.876 37.9934 190.731 37.921 190.514 37.921H189.139ZM189.139 35.3158V36.4737H190.442C190.586 36.4737 190.731 36.4013 190.804 36.3289C190.876 36.2566 190.948 36.1118 190.948 35.9671C190.948 35.8224 190.876 35.6776 190.804 35.5329C190.731 35.3881 190.586 35.3882 190.442 35.3882H189.139V35.3158Z" fill="#333333"/>
<path d="M195.29 36.1842V34.8092C195.29 34.6645 195.29 34.4474 195.363 34.3026C195.435 34.1579 195.507 34.0132 195.652 33.8684C195.797 33.7237 195.942 33.6513 196.086 33.579C196.231 33.5066 196.448 33.5066 196.593 33.5066C196.738 33.5066 196.955 33.5066 197.099 33.579C197.244 33.6513 197.389 33.7237 197.534 33.8684C197.678 34.0132 197.751 34.0855 197.823 34.3026C197.896 34.4474 197.896 34.5921 197.896 34.8092V36.1842H195.29ZM197.896 35.75V38.1382V40.3092C197.896 40.5263 197.896 40.6711 197.823 40.8158C197.751 40.9605 197.678 41.1053 197.534 41.25C197.389 41.3948 197.244 41.4671 197.099 41.5395C196.955 41.6119 196.738 41.6119 196.593 41.6119C196.376 41.6119 196.231 41.6119 196.086 41.5395C195.942 41.4671 195.797 41.3948 195.652 41.25C195.507 41.1053 195.435 40.9605 195.363 40.8158C195.29 40.6711 195.29 40.454 195.29 40.3092V35.6053L197.896 35.75ZM201.659 33.5066C201.876 33.5066 202.093 33.579 202.31 33.7237C202.455 33.8684 202.599 34.0132 202.672 34.1579C202.744 34.3026 202.817 34.5198 202.817 34.7369C202.817 34.954 202.744 35.0987 202.672 35.3158C202.599 35.4605 202.455 35.6053 202.31 35.75C202.165 35.8948 201.948 35.8948 201.731 35.8948H201.586C201.442 35.8948 201.297 35.8948 201.224 35.9671C201.08 36.0395 201.007 36.1119 200.935 36.2566C200.573 36.8355 200.284 37.3421 199.994 37.7763C199.705 38.2105 199.343 38.5724 198.981 38.7895C198.619 39.079 198.185 39.2237 197.751 39.2237C197.678 39.2237 197.606 39.2237 197.606 39.2237H197.461L197.389 36.6908C197.389 36.6908 197.389 36.6908 197.461 36.6908C197.534 36.6908 197.534 36.6908 197.606 36.6908C197.678 36.6908 197.678 36.6908 197.751 36.6908C197.823 36.6908 197.823 36.6908 197.823 36.6908C197.968 36.6908 198.04 36.6908 198.185 36.6184C198.257 36.5461 198.402 36.4737 198.474 36.4013C198.619 36.2566 198.692 36.1119 198.836 35.8948C198.981 35.6776 199.053 35.4605 199.198 35.2434C199.343 35.0263 199.415 34.8092 199.56 34.5921C199.705 34.375 199.85 34.1579 200.067 34.0132C200.211 33.8684 200.428 33.7237 200.646 33.6513C200.863 33.579 201.08 33.5066 201.369 33.5066C201.442 33.5066 201.514 33.5066 201.586 33.5066C201.659 33.5066 201.586 33.5066 201.659 33.5066ZM200.501 36.4737C200.646 36.6908 200.79 36.9803 201.007 37.2698C201.152 37.5592 201.369 37.8487 201.514 38.1382C201.731 38.4276 201.876 38.7171 202.021 39.0066C202.165 39.2961 202.382 39.5855 202.527 39.8026C202.6 40.0198 202.672 40.1645 202.672 40.454C202.672 40.6711 202.599 40.8882 202.455 41.0329C202.31 41.1776 202.165 41.3948 201.948 41.4671C201.731 41.6119 201.442 41.6119 201.152 41.6119C201.007 41.6119 200.79 41.5395 200.646 41.3948C200.501 41.3224 200.356 41.1776 200.284 40.9605L198.547 38.0658L200.501 36.4737Z" fill="#333333"/>
<path d="M211.284 37.4868C211.284 38.0658 211.211 38.5723 211.067 39.0789C210.922 39.5855 210.705 40.0197 210.415 40.3816C210.126 40.7434 209.764 41.0329 209.33 41.25C208.896 41.4671 208.389 41.6118 207.81 41.6118C207.231 41.6118 206.725 41.4671 206.218 41.25C205.711 41.0329 205.277 40.7434 204.915 40.3816C204.553 40.0197 204.264 39.5855 204.047 39.0789C203.83 38.5723 203.685 38.0658 203.685 37.4868C203.685 36.9079 203.83 36.4013 204.047 35.8947C204.264 35.3881 204.553 34.9539 204.915 34.5921C205.277 34.2302 205.711 33.9408 206.218 33.7237C206.725 33.5066 207.231 33.3618 207.81 33.3618C208.389 33.3618 208.896 33.5066 209.33 33.7237C209.764 33.9408 210.126 34.2302 210.415 34.5921C210.705 34.9539 210.922 35.3881 211.067 35.8947C211.211 36.4013 211.284 36.9802 211.284 37.4868ZM209.402 37.4868C209.402 37.2697 209.33 37.0526 209.257 36.8355C209.185 36.6184 209.04 36.4737 208.968 36.3289C208.823 36.1842 208.678 36.0394 208.461 35.9671C208.244 35.8947 208.1 35.8223 207.882 35.8223C207.665 35.8223 207.448 35.8947 207.303 35.9671C207.086 36.0394 206.942 36.1842 206.797 36.3289C206.652 36.4737 206.58 36.6184 206.507 36.8355C206.435 37.0526 206.363 37.2697 206.363 37.4868C206.363 37.7039 206.435 37.921 206.507 38.1381C206.58 38.3552 206.725 38.5 206.797 38.6447C206.942 38.7895 207.086 38.9342 207.303 39.0066C207.521 39.0789 207.665 39.1513 207.882 39.1513C208.1 39.1513 208.317 39.0789 208.461 39.0066C208.678 38.9342 208.823 38.7895 208.968 38.6447C209.113 38.5 209.185 38.3552 209.257 38.1381C209.33 37.921 209.402 37.7039 209.402 37.4868ZM212.007 37.6316C212.007 37.8487 212.007 37.9934 211.935 38.1381C211.863 38.2829 211.79 38.4276 211.646 38.5723C211.501 38.7171 211.356 38.7895 211.211 38.8618C211.067 38.9342 210.85 38.9342 210.705 38.9342C210.56 38.9342 210.343 38.9342 210.198 38.8618C210.053 38.7895 209.909 38.7171 209.764 38.5723C209.619 38.4276 209.547 38.2829 209.475 38.1381C209.402 37.9934 209.402 37.7763 209.402 37.6316V35.6052H209.692L210.198 34.3026C210.271 34.0131 210.415 33.7237 210.632 33.5789C210.777 33.4342 210.994 33.3618 211.284 33.3618C211.79 33.3618 212.007 33.5789 212.007 34.0855V37.6316ZM212.007 40.8881C212.007 41.1052 211.935 41.3223 211.863 41.4671C211.718 41.6118 211.573 41.6842 211.284 41.6842C210.777 41.6842 210.488 41.3947 210.271 40.8158L209.764 39.4408H209.475V37.5592C209.475 37.3421 209.475 37.1973 209.547 37.0526C209.619 36.9079 209.692 36.7631 209.836 36.6184C209.981 36.4737 210.126 36.4013 210.271 36.3289C210.415 36.2566 210.632 36.2566 210.777 36.2566C210.994 36.2566 211.139 36.2566 211.284 36.3289C211.428 36.4013 211.573 36.4737 211.718 36.6184C211.863 36.7631 211.935 36.9079 212.007 37.0526C212.08 37.1973 212.08 37.4145 212.08 37.5592V40.8881H212.007Z" fill="#333333"/>
</g>
<defs>
<clipPath id="clip0">
<rect width="211.822" height="44" fill="white"/>
</clipPath>
</defs>
</svg>